#!OML:ASF F:\VICON\USERDATA\INSTALL\Justin_Nancy\Justin_Nancy.ASF
:FULLY-SPECIFIED
:DEGREES
1
root 1.07946 17.4655 -34.6927 5.84457 -1.89383 1.10387
lowerback 2.01305 -3.91275 -5.72315
upperback -4.6649 -5.28044 5.74034
thorax -4.96032 -2.27763 9.61319
lowerneck -7.69022 0.106765 -14.8726
upperneck 18.264 1.31693 5.52204
head 6.72231 0.077598 4.3597
rclavicle 1.33683e-014 3.18055e-014
rhumerus -35.1147 1.21874 -80.7042
rradius 27.3803
rwrist 8.71433
rhand -13.9861 2.15304
rfingers 7.12502
rthumb 12.1425 -27.4746
lclavicle 1.33683e-014 3.18055e-014
lhumerus -40.2648 22.464 83.3502
lradius 26.7906
lwrist -7.68302
lhand -14.1269 30.3559
lfingers 7.12502
lthumb 12.0067 59.9915
rfemur -13.8889 5.17812 20.756
rtibia 30.8976
rfoot -17.6356 -11.0866
rtoes 0.515712
lfemur -14.3827 -3.24478 -22.5282
ltibia 30.3653
lfoot -18.6461 7.95941
ltoes 1.86036
2
root 1.07684 17.4663 -34.6972 5.86413 -1.89058 1.12058
lowerback 2.08466 -4.04911 -5.8562
upperback -4.7377 -5.47004 5.84437
thorax -5.01998 -2.36011 9.82163
lowerneck -7.36206 0.268485 -15.0132
upperneck 18.1731 1.50209 5.5271
head 6.61526 0.15832 4.39114
rclavicle 3.46879e-014 -3.81667e-014
rhumerus -35.2355 1.84009 -80.8953
rradius 27.5875
rwrist 8.39773
rhand -14.9625 9.24699
rfingers 7.12502
rthumb 11.2009 -20.434
lclavicle 3.46879e-014 -3.81667e-014
lhumerus -40.4876 22.9145 83.1746
lradius 26.7749
lwrist -7.76724
lhand -14.1986 30.3411
lfingers 7.12502
lthumb 11.9376 59.9808
rfemur -13.9638 5.10323 20.7457
rtibia 30.9487
rfoot -17.7012 -10.9644
rtoes 1.88209
lfemur -14.4332 -3.31744 -22.5254
ltibia 30.4137
lfoot -18.7466 7.95297
ltoes 2.40096
3
root 1.07246 17.464 -34.6967 5.87994 -1.98372 1.0153
lowerback 2.21224 -4.13148 -5.95085
upperback -4.84513 -5.58331 6.04617
thorax -5.15798 -2.39811 10.1232
lowerneck -7.14402 0.435214 -15.3116
upperneck 18.2206 1.73134 5.54716
head 6.56708 0.246522 4.46038
rclavicle 2.7482e-014 -6.04305e-014
rhumerus -35.4968 2.57416 -80.978
rradius 27.8221
rwrist 8.20367
rhand -15.5031 12.3004
rfingers 7.12502
rthumb 10.6795 -17.4082
lclavicle 2.7482e-014 -6.04305e-014
lhumerus -40.8027 23.5451 82.9904
lradius 26.7456
lwrist -7.9128
lhand -14.2292 30.1404
lfingers 7.12502
lthumb 11.9081 59.7818
rfemur -13.9918 5.19286 20.8712
rtibia 30.9765
rfoot -17.6884 -10.9523
rtoes 1.02495
lfemur -14.4539 -3.27639 -22.3987
ltibia 30.4137
lfoot -18.6625 7.95779
ltoes 2.63376
4
root 1.06803 17.4653 -34.6949 5.8916 -2.01664 1.01329
lowerback 2.30445 -4.2176 -6.10096
upperback -4.90929 -5.70681 6.17085
thorax -5.2287 -2.44524 10.3663
lowerneck -7.08887 0.529172 -15.388
upperneck 18.307 1.87536 5.46384
head 6.57158 0.299718 4.45621
rclavicle -2.5345e-014 -3.18055e-014
rhumerus -35.664 3.11883 -81.0673
rradius 27.9434
rwrist 8.1982
rhand -15.2828 12.1454
rfingers 7.12502
rthumb 10.892 -17.5521
lclavicle -2.5345e-014 -3.18055e-014
lhumerus -40.9617 23.8893 82.9025
lradius 26.6976
lwrist -7.9185
lhand -14.1212 30.0191
lfingers 7.12502
lthumb 12.0122 59.6544
rfemur -14.0336 5.19112 20.8775
rtibia 31.0393
rfoot -17.7533 -10.903
rtoes 2.80474
lfemur -14.4618 -3.25751 -22.389
ltibia 30.3916
lfoot -18.5373 7.97557
ltoes 2.50326
5
root 1.0671 17.4647 -34.6947 5.86604 -1.80781 1.13208
lowerback 2.54256 -4.32768 -6.29835
upperback -5.0089 -5.87411 6.22813
thorax -5.41268 -2.50495 10.5827
lowerneck -7.10756 0.564589 -15.3542
upperneck 18.4156 1.94701 5.32496
head 6.60576 0.320439 4.41245
rclavicle -2.75814e-014 6.36111e-015
rhumerus -35.8031 3.43335 -81.0866
rradius 28.0581
rwrist 8.01772
rhand -15.1879 11.902
rfingers 7.12502
rthumb 10.9836 -17.7907
lclavicle -2.75814e-014 6.36111e-015
lhumerus -41.2124 23.9747 82.9308
lradius 26.8347
lwrist -7.83631
lhand -14.2109 30.0173
lfingers 7.12502
lthumb 11.9258 59.6576
rfemur -14.0071 4.88785 20.7715
rtibia 31.1006
rfoot -17.823 -10.8131
rtoes 1.46251
lfemur -14.4182 -3.50704 -22.4986
ltibia 30.3543
lfoot -18.5702 8.04487
ltoes 2.48694
6
root 1.06313 17.4606 -34.6931 5.89558 -1.75323 1.25419
lowerback 2.80742 -4.17697 -5.93482
upperback -5.35309 -5.6718 5.87072
thorax -6.04419 -2.37789 10.026
lowerneck -6.46084 0.517423 -15.2618
upperneck 18.4648 1.71548 5.56769
head 6.52681 0.226736 4.45538
rclavicle -5.41688e-015 2.8625e-014
rhumerus -36.6486 2.77825 -81.2134
rradius 28.227
rwrist 8.13664
rhand -15.4233 11.8768
rfingers 7.12502
rthumb 10.7565 -17.8278
lclavicle -5.41688e-015 2.8625e-014
lhumerus -41.7593 23.0256 82.7314
lradius 26.8786
lwrist -7.5918
lhand -14.4143 29.6614
lfingers 7.12502
lthumb 11.7296 59.313
rfemur -14.0459 4.86327 20.6586
rtibia 31.1259
rfoot -17.8108 -10.9035
rtoes 2.08393
lfemur -14.4591 -3.43168 -22.6189
ltibia 30.3384
lfoot -18.6217 8.00065
ltoes 1.86504
7
root 1.05798 17.4592 -34.6924 5.89892 -1.78221 1.26098
lowerback 3.69453 -3.97311 -5.52183
upperback -5.97523 -5.41518 5.55845
thorax -7.34798 -2.18196 9.57679
lowerneck -5.8067 0.497905 -14.9745
upperneck 18.8229 1.52374 5.66117
head 6.54512 0.139814 4.42809
rclavicle 4.65156e-014 0
rhumerus -37.8495 2.16149 -81.296
rradius 28.3117
rwrist 8.22149
rhand -15.4388 12.8131
rfingers 7.12502
rthumb 10.7415 -16.8923
lclavicle 4.65156e-014 0
lhumerus -42.6678 22.1174 82.353
lradius 26.7838
lwrist -7.45866
lhand -14.4768 29.5366
lfingers 7.12502
lthumb 11.6693 59.1916
rfemur -14.054 4.99346 20.6662
rtibia 31.1373
rfoot -17.8305 -10.9795
rtoes 1.05626
lfemur -14.4754 -3.41293 -22.6062
ltibia 30.3377
lfoot -18.4892 7.97401
ltoes 1.46592
8
root 1.05339 17.4621 -34.6862 5.9091 -1.83187 1.12631
lowerback 2.53007 -3.56987 -5.44342
upperback -4.73597 -4.83797 5.3176
thorax -5.4761 -2.04531 9.02766
lowerneck -7.52142 -0.210977 -14.2386
upperneck 18.4119 0.752124 5.57064
head 6.79722 -0.155007 4.23295
rclavicle -3.58309e-014 1.59028e-015
rhumerus -35.7165 0.281753 -81.0637
rradius 28.0061
rwrist 8.47826
rhand -14.8128 13.9554
rfingers 7.12502
rthumb 11.3453 -15.7177
lclavicle -3.58309e-014 1.59028e-015
lhumerus -39.977 21.4 83.2228
lradius 26.3957
lwrist -7.81516
lhand -14.4151 29.4159
lfingers 7.12502
lthumb 11.7289 59.0675
rfemur -14.0584 5.07849 20.8264
rtibia 31.1515
rfoot -17.8676 -11.0237
rtoes 2.29188
lfemur -14.533 -3.20161 -22.4759
ltibia 30.3436
lfoot -18.3105 8.00192
ltoes 1.67819
9
root 1.04808 17.4636 -34.682 5.94204 -2.01635 1.22452
lowerback 2.33448 -3.74151 -5.09418
upperback -5.36631 -5.04341 5.22385
thorax -6.03228 -2.12032 8.75894
lowerneck -4.77812 0.365109 -15.2318
upperneck 17.7337 1.11638 6.17626
head 6.05146 -0.00243927 4.57692
rclavicle -3.72721e-014 -1.90833e-014
rhumerus -37.2045 0.946405 -81.2789
rradius 28.1949
rwrist 8.49096
rhand -13.732 15.0438
rfingers 7.12502
rthumb 12.3875 -14.5692
lclavicle -3.72721e-014 -1.90833e-014
lhumerus -41.9104 21.3523 82.5333
lradius 26.8353
lwrist -7.46809
lhand -14.3509 29.4288
lfingers 7.12502
lthumb 11.7908 59.0769
rfemur -14.1028 5.15314 20.7129
rtibia 31.1437
rfoot -17.8258 -10.9625
rtoes 0.948055
lfemur -14.6166 -3.09803 -22.5914
ltibia 30.349
lfoot -18.2675 8.13189
ltoes 2.35267
10
root 1.04377 17.4596 -34.6748 5.94188 -2.20502 1.31404
lowerback 2.16772 -3.53432 -5.51806
upperback -4.8533 -4.78351 5.25352
thorax -5.40375 -2.0167 8.97453
lowerneck -6.50197 -0.00683887 -14.7088
upperneck 18.2903 0.902504 5.74394
head 6.56123 -0.106368 4.36584
rclavicle 6.50523e-014 -1.27222e-014
rhumerus -36.3489 0.555066 -81.1373
rradius 28.2951
rwrist 8.36397
rhand -15.1002 13.6235
rfingers 7.12502
rthumb 11.0681 -16.0647
lclavicle 6.50523e-014 -1.27222e-014
lhumerus -40.7267 21.1674 83.1481
lradius 26.8413
lwrist -7.80677
lhand -13.9131 30.1932
lfingers 7.12502
lthumb 12.2129 59.8167
rfemur -14.0965 5.22112 20.6058
rtibia 31.1386
rfoot -17.8177 -10.8521
rtoes 2.21984
lfemur -14.4863 -3.29124 -22.6835
ltibia 30.3322
lfoot -18.4519 8.38173
ltoes 2.22158
11
root 1.03901 17.4588 -34.6709 5.98921 -2.15861 1.20818
lowerback 1.82001 -3.49111 -5.58415
upperback -4.36877 -4.71602 5.29477
thorax -4.69394 -2.03039 8.99328
lowerneck -7.73717 -0.20883 -14.4008
upperneck 18.5728 0.807322 5.60348
head 6.88183 -0.140426 4.28042
rclavicle 5.23301e-014 -2.70347e-014
rhumerus -35.4837 0.432052 -81.2127
rradius 28.2913
rwrist 7.99509
rhand -15.8704 12.9119
rfingers 7.12502
rthumb 10.3252 -16.8147
lclavicle 5.23301e-014 -2.70347e-014
lhumerus -39.6104 21.1995 83.4921
lradius 26.8152
lwrist -8.02352
lhand -13.4059 31.2628
lfingers 7.12502
lthumb 12.7019 60.8565
rfemur -14.1435 5.21925 20.7441
rtibia 31.17
rfoot -17.8025 -10.8291
rtoes 1.20719
lfemur -14.4516 -3.34945 -22.5252
ltibia 30.3062
lfoot -18.6173 8.31158
ltoes 1.78873
12
root 1.03316 17.4599 -34.6672 6.01845 -2.11404 1.20964
lowerback 1.51879 -3.07194 -5.03274
upperback -4.0423 -4.13697 4.73389
thorax -4.35878 -1.79497 8.00791
lowerneck -8.1263 -0.657232 -13.9073
upperneck 18.3983 0.105279 6.01284
head 6.9592 -0.398789 4.28139
rclavicle 5.04789e-014 -3.49861e-014
rhumerus -35.1644 -1.58676 -81.1957
rradius 28.2048
rwrist 8.38217
rhand -16.5663 12.0002
rfingers 7.12502
rthumb 9.65377 -17.7586
lclavicle 5.04789e-014 -3.49861e-014
lhumerus -38.6602 19.753 83.6611
lradius 26.5354
lwrist -7.87568
lhand -13.676 30.432
lfingers 7.12502
lthumb 12.4415 60.0417
rfemur -14.1779 5.2197 20.7629
rtibia 31.2271
rfoot -17.8002 -10.8545
rtoes 2.66557
lfemur -14.4559 -3.37691 -22.4979
ltibia 30.2815
lfoot -18.6559 8.29985
ltoes 1.75206
13
root 1.02768 17.4584 -34.6637 6.02626 -2.01593 1.21784
lowerback 1.57366 -2.91521 -4.90459
upperback -4.01268 -3.92842 4.56537
thorax -4.41295 -1.69607 7.74915
lowerneck -8.07875 -0.831134 -13.6975
upperneck 18.2145 -0.183138 6.08216
head 6.91945 -0.511786 4.24275
rclavicle 2.95568e-014 -2.22639e-014
rhumerus -35.1749 -2.10678 -81.1961
rradius 28.1575
rwrist 8.27818
rhand -16.0967 12.24
rfingers 7.12502
rthumb 10.1069 -17.4973
lclavicle 2.95568e-014 -2.22639e-014
lhumerus -38.415 19.4358 83.6101
lradius 26.1663
lwrist -8.01852
lhand -13.9638 29.602
lfingers 7.12502
lthumb 12.164 59.2283
rfemur -14.1608 5.16283 20.7883
rtibia 31.2579
rfoot -17.9105 -10.8982
rtoes 1.25818
lfemur -14.499 -3.26303 -22.4763
ltibia 30.2929
lfoot -18.653 8.14232
ltoes 1.68877
